<svg viewBox="0 0 800 460" xmlns="http://www.w3.org/2000/svg">
    <rect width="800" height="460" fill="#f4f6f8"/>
    <text x="400" y="42" text-anchor="middle" font-family="Arial, sans-serif" font-size="22" font-weight="700" fill="#1e3a5f">Kantianism: one backdoor, everyone's risk</text>

    <g transform="translate(120,80)">
          <path d="M90 0 L170 30 L170 100 C170 155 130 188 90 202 C50 188 10 155 10 100 L10 30 Z" fill="#2a9d8f"/>
          <circle cx="90" cy="95" r="20" fill="#f4f6f8"/>
          <rect x="82" y="95" width="16" height="26" fill="#f4f6f8"/>
          <text x="90" y="232" text-anchor="middle" font-family="Arial, sans-serif" font-size="16" font-weight="700" fill="#1e3a5f">iCloud encryption</text>
          <text x="90" y="254" text-anchor="middle" font-family="Arial, sans-serif" font-size="13" fill="#3d5a73">Advanced Data Protection</text>
    </g>

    <g stroke="#e76f51" stroke-width="4" fill="none">
          <line x1="330" y1="170" x2="450" y2="170"/>
          <polygon points="450,160 470,170 450,180" fill="#e76f51" stroke="none"/>
    </g>
    <text x="390" y="150" text-anchor="middle" font-family="Arial, sans-serif" font-size="13" fill="#e76f51">UK government order</text>

    <g transform="translate(510,80)">
          <path d="M90 0 L170 30 L170 100 C170 155 130 188 90 202 C50 188 10 155 10 100 L10 30 Z" fill="#e76f51" opacity="0.9"/>
          <rect x="55" y="65" width="30" height="80" fill="#f4f6f8"/>
          <circle cx="90" cy="95" r="20" fill="#f4f6f8" opacity="0.4"/>
          <text x="90" y="232" text-anchor="middle" font-family="Arial, sans-serif" font-size="16" font-weight="700" fill="#1e3a5f">Every user's device</text>
          <text x="90" y="254" text-anchor="middle" font-family="Arial, sans-serif" font-size="13" fill="#3d5a73">exposed worldwide</text>
    </g>

    <rect x="100" y="360" width="600" height="60" rx="8" fill="#1e3a5f"/>
    <text x="400" y="386" text-anchor="middle" font-family="Arial, sans-serif" font-size="14" fill="#ffffff">Categorical Imperative: you cannot will a backdoor as a universal rule</text>
    <text x="400" y="406" text-anchor="middle" font-family="Arial, sans-serif" font-size="14" fill="#ffffff">without breaking the very right it claims to protect</text>
</svg>
